<?xml version="1.0" encoding="iso-8859-1"?>
<!-- Generator: Adobe Illustrator 16.0.0, SVG Export Plug-In . SVG Version: 6.00 Build 0)  -->
<!DOCTYPE svg PUBLIC "-//W3C//DTD SVG 1.1//EN" "http://www.w3.org/Graphics/SVG/1.1/DTD/svg11.dtd">
<svg version="1.1" id="Capa_1" xmlns="http://www.w3.org/2000/svg" xmlns:xlink="http://www.w3.org/1999/xlink" x="0px" y="0px"
	 width="365.617px" height="365.617px" viewBox="0 0 365.617 365.617" style="enable-background:new 0 0 365.617 365.617;"
	 xml:space="preserve">
<g>
	<path d="M364.604,108.494c-2.252-6.873-11.992-18.033-16.394-22.843c-0.474-0.474-0.967-0.916-1.477-1.351l-6.533,7.569
		l5.614-8.383c-0.498-0.465-1.015-0.916-1.399-1.228c-0.612-0.517-1.249-0.984-1.886-1.447l-5.872,8.095l5.086-8.671
		c-0.589-0.45-1.165-0.886-1.915-1.39c-0.625-0.399-1.256-0.769-1.886-1.138l-5.057,8.62l4.27-9.1
		c-0.588-0.37-1.183-0.739-1.921-1.144c-0.601-0.318-2.763-1.333-2.763-1.333c-0.708-0.363-1.429-0.708-2.12-0.991
		c-0.738-0.306-1.501-0.571-2.27-0.856l-3.303,9.439l2.354-9.775c-0.667-0.252-1.333-0.499-1.88-0.664
		c-0.774-0.24-1.585-0.451-2.372-0.633c0,0-2.624-0.673-2.948-0.727c-1.021-0.217-2.054-0.37-3.086-0.505
		c0,0-2.114-0.33-2.582-0.375c-1.892-0.189-3.808-0.288-5.765-0.288H152.803c-9.001-20.138-28.874-33.21-51.539-33.21H57.06
		c-1.942,0-3.876,0.096-5.807,0.3c-0.594,0.06-1.162,0.153-2.465,0.363c-1.009,0.129-1.99,0.27-2.951,0.454
		c-0.658,0.132-1.303,0.303-1.949,0.474l2.669,9.641l-3.573-9.407c-0.855,0.204-1.717,0.423-2.645,0.703
		c-0.616,0.195-1.198,0.405-1.795,0.636l3.531,9.347l-4.858-8.866c-0.669,0.234-1.33,0.474-2.099,0.792
		c-0.588,0.246-1.174,0.528-1.75,0.813l4.401,8.972l-5.558-8.425c-0.657,0.306-1.336,0.621-2.036,1.009L28.104,44.2
		c0,0-1.958,1.183-2.453,1.531c-0.64,0.421-1.255,0.886-2.468,1.79c-0.621,0.45-1.228,0.897-1.942,1.471
		c-0.499,0.412-2.288,2.036-2.288,2.036c-0.528,0.459-1.062,0.921-1.912,1.795c-4.083,4.513-13.796,15.76-16.048,22.653
		c-1.414,4.326-1.063,11.953-0.504,17.78v179.612c0,31.195,25.388,56.583,56.589,56.583h251.46c31.2,0,56.589-25.388,56.589-56.583
		V126.462C365.691,120.551,366.04,112.847,364.604,108.494z M140.311,103.323h168.203c1.537,0,3.057,0.153,4.558,0.462
		c8.587,1.763,15.246,8.361,17.359,16.576H34.425V92.74c0-12.475,10.151-22.626,22.629-22.626h44.204
		c11.124,0,20.495,7.968,22.284,18.945C124.887,97.315,131.939,103.323,140.311,103.323z"/>
</g>
<g>
</g>
<g>
</g>
<g>
</g>
<g>
</g>
<g>
</g>
<g>
</g>
<g>
</g>
<g>
</g>
<g>
</g>
<g>
</g>
<g>
</g>
<g>
</g>
<g>
</g>
<g>
</g>
<g>
</g>
</svg>
